<svg width="242" height="101" viewBox="0 0 242 101" fill="none" xmlns="http://www.w3.org/2000/svg">
<g clip-path="url(#clip0_12_103)">
<path d="M0 16.896L242 0V83.8011L0 100.71V16.896Z" fill="#F6E948"/>
<path d="M27.7829 50.7007C31.4286 47.7589 34.9486 44.6161 38.4058 41.4229C37.7646 44.0504 37.1235 46.6778 36.4823 49.2926C35.8412 52.0458 35.1372 54.8618 34.496 57.6149C33.9806 59.7269 32.8995 62.2915 33.2766 64.5292C33.7292 66.8927 37.048 68.5647 39.1726 69.0801C41.6115 69.6584 43.0195 66.9681 44.2892 65.3087C47.1052 61.6629 49.9212 57.9418 52.4858 54.1075C51.7189 57.5018 51.0778 60.9589 50.6252 64.4789C50.3109 66.9806 49.6698 69.9852 50.8766 72.3486C51.5178 73.5681 52.5989 74.4606 53.7555 75.1646C55.1635 76.0572 57.0869 77.2766 58.872 77.2138C61.2983 77.0881 62.7063 74.2092 63.4229 72.2229C65.9875 65.3087 68.288 58.2687 70.4 51.2286C71.2926 48.1612 72.0595 45.0184 72.9018 41.8755V41.9384C73.3543 42.9566 75.9063 44.4401 77 44.3018C77.5155 44.2389 77.8298 44.0504 78.2195 43.7864C77.7669 45.0058 73.6686 57.8664 70.9155 66.3898C70.5258 67.7349 70.4 69.1429 71.368 70.3624C72.3235 71.5189 73.7943 72.4115 75.1395 73.0527C76.2332 73.5681 77.3772 74.2092 78.5966 74.1464C80.7086 74.1464 83.1475 72.8012 85.1212 72.0972C87.5475 71.2046 90.7532 69.4698 93.2549 68.5144C94.5372 67.9989 95.8823 67.4207 97.1646 66.8549C98.2583 66.3395 99.3395 66.0252 99.9806 64.9315C100.232 64.4789 97.8058 63.3978 97.416 63.3349C94.3486 63.3349 91.2686 64.3658 88.3269 65.3212C85.8252 66.0881 85.9635 66.2138 83.4618 67.1189C81.0355 67.9486 82.5692 67.5086 80.1303 68.3384C79.2378 68.6526 78.3326 68.9795 77.44 69.2938C77.5658 68.8412 79.4892 62.4424 81.4755 55.6538C81.8652 55.5281 82.2423 55.4024 82.6949 55.2641C84.4926 54.7486 86.2778 54.1704 88.0755 53.7304C90.0618 53.2149 92.5635 53.0892 94.16 51.8698V51.7441C94.16 51.6184 94.16 51.4926 94.0972 51.3544C94.0343 50.7761 92.5006 50.1978 92.048 50.0721C89.1692 49.3052 86.2275 49.9464 83.3989 50.6504C83.2103 50.7132 83.0218 50.7761 82.8835 50.7761C84.6812 44.7544 86.152 39.5749 86.2149 39.3864C87.6858 38.9338 86.592 39.1978 88.0755 38.8081C90.9543 38.1041 91.8595 37.9155 94.8012 37.5258C96.272 37.3372 97.7429 37.0732 99.1509 36.8846C100.043 36.7589 101.841 36.8846 102.093 35.7909C102.218 35.0869 99.9806 34.1315 99.4652 33.9932C96.1966 33.0378 94.7886 32.9624 91.3943 33.4149C88.2515 33.8675 81.2115 35.2755 77.0503 37.1235C76.0949 37.5761 74.4229 38.4058 73.4675 39.4241C73.5303 39.2355 73.5932 38.9715 73.656 38.7829C74.1715 36.7966 74.4858 34.7475 74.8755 32.6984C75.2526 30.5235 75.5795 28.4115 75.4538 26.1738C75.4538 25.9224 74.0458 25.0801 73.92 25.3441C72.0595 27.8458 71.2298 31.3029 70.1486 34.2446C68.992 37.3121 68.1623 40.5178 67.0686 43.6606C64.9566 49.9338 62.9703 56.2698 60.7326 62.4801C59.7143 65.2961 58.872 68.3761 57.4012 70.9281C57.0115 71.5692 56.5715 72.2732 55.9932 72.8515C55.8046 70.8024 56.1818 68.6275 56.3829 66.7041C56.7098 63.4984 57.2126 60.3052 57.8538 57.0995C59.2618 49.7955 61.3109 42.6298 63.1086 35.4012C63.2343 34.8858 60.7452 33.5407 60.4812 33.8675C60.3555 34.0561 60.2926 34.1944 60.1669 34.3829H60.0412C58.4446 35.0869 57.6778 36.4321 56.6469 37.7772C55.616 39.1224 54.6606 40.5932 53.7052 42.0012C51.7189 44.8801 49.6069 47.6961 47.5578 50.5749C45.5715 53.3281 43.5852 56.1441 41.536 58.8344C40.8949 59.6641 40.2538 60.4938 39.6126 61.3361C40.2538 58.4572 40.8949 55.5784 41.5989 52.6241C42.944 46.7281 44.2263 40.7818 45.4332 34.8858C45.6218 33.9932 41.3978 31.6172 40.8195 32.1955C35.3132 37.6389 29.8069 43.0824 24.7532 48.9658C24.5018 49.1544 27.2549 51.1407 27.7578 50.7007" fill="#510C76"/>
<path d="M187.767 60.0537L187.704 52.1714L192.129 60.0537L199.546 72.2102H210.76V30.2217H199.936L199.999 42.4411V50.2605L195.586 42.4411L188.157 30.2217H176.893V72.2102H187.767V60.0537Z" fill="#510C76"/>
<path d="M173.297 62.2285H155.307V56.0182H167.288V46.4765H155.307V40.1405H168.759L174.579 30.2217H142.761V72.2102H173.297V62.2285Z" fill="#510C76"/>
<path d="M108.391 67.9862C110.314 69.7211 112.426 71.0537 114.915 71.9588C117.342 72.8514 120.032 73.3039 122.923 73.3039C125.815 73.3039 128.555 72.9897 130.994 72.2857C133.433 71.5817 136.048 70.5508 138.801 69.0171V46.9919H127.663L122.672 55.4399H127.663V62.6057C126.066 63.1211 124.52 63.3725 123.112 63.3725C118.121 63.3725 115.619 59.3371 115.619 51.2662C115.619 46.8537 116.449 43.7737 118.046 41.9885C119.642 40.1908 121.691 39.2982 124.067 39.2982C126.443 39.2982 128.933 39.8137 131.309 40.7062L136.563 31.8057C132.402 30.0079 128.053 29.1782 123.502 29.1782C120.623 29.1782 117.933 29.6308 115.431 30.5234C112.929 31.4159 110.691 32.6982 108.705 34.4331C106.719 36.1679 105.185 38.4685 104.029 41.3474C102.872 44.2262 102.306 47.4948 102.306 51.2034C102.306 54.9119 102.822 58.1805 103.903 61.0594C104.997 63.9382 106.467 66.2514 108.391 67.9737" fill="#510C76"/>
</g>
<defs>
<clipPath id="clip0_12_103">
<rect width="242" height="100.71" fill="white"/>
</clipPath>
</defs>
</svg>
